# xmcd
#
# Track frame offsets: 
#        150
#        21648
#        38590
#        56502
#        73654
#        93046
#        111678
#        127545
#        146073
#        160378
#        174913
#        194587
#        206737
#        221280
#
# Disc length: 3155 seconds
#
# Revision: 0
# Processed by: cddbd v1.5.2PL0 Copyright (c) Steve Scherf et al.
# Submitted via: ExactAudioCopyFreeDBPlugin 1.0
#
DISCID=ca0c510e
DTITLE=Negra Li - Você Vai Estar na Minha: Duetos
DYEAR=2014
DGENRE=R&B
TTITLE0=Não é Sério
TTITLE1=Meus Telefonemas
TTITLE2=Ainda Gosto Dela
TTITLE3=Beautiful
TTITLE4=O Destino
TTITLE5=Guerreiro, Guerreira
TTITLE6=1 Minuto
TTITLE7=Negra Livre
TTITLE8=Chain of Fools
TTITLE9=Antônia
TTITLE10=Deixa Rolar
TTITLE11=Aqui Neste Lugar
TTITLE12=Não Dá Mais Sem Você
TTITLE13=Você Vai Estar na Minha
EXTD=
EXTT0=
EXTT1=
EXTT2=
EXTT3=
EXTT4=
EXTT5=
EXTT6=
EXTT7=
EXTT8=
EXTT9=
EXTT10=
EXTT11=
EXTT12=
EXTT13=
PLAYORDER=
